# xmcd
# Track frame offsets:
# 183
# 14905
# 28575
# 41193
# 52745
# 63158
# 75965
# 88365
# 104593
# 120068
# 133473
# 145298
# 157870
# 172945
# 187138
# 197785
# 209163
# 219453
#
# Disc length: 3053 seconds
# Revision: 0
# Processed by: cddbd v1.4PL0 Copyright (c) Steve Scherf et al.
# Submitted via: VisiTrax 2.9.5.180 - For more info visit www.synapsa.com
#
DISCID=070beb12
DTITLE=Don Gibson - Sings country favorites
DYEAR=1900
DGENRE=
TTITLE0=I can't stop loving you
TTITLE1=Release me
TTITLE2=I love you because
TTITLE3=My elusive dreams
TTITLE4=Lonesome number one
TTITLE5=To soon to know
TTITLE6=Kaw-liga
TTITLE7=Green green grass of home
TTITLE8=Sweet dreams
TTITLE9=There goes my everything
TTITLE10=Oh lonesome me
TTITLE11=Cold cold heart
TTITLE12=(I heard that) lonesome whistle
TTITLE13=You win again
TTITLE14=Funny familiar forgotten feelings
TTITLE15=(I'd be) A legend in my time
TTITLE16=Sea of heartbreak
TTITLE17=Take these chains from my heart
EXTD=
EXTT0=
EXTT1=
EXTT2=
EXTT3=
EXTT4=
EXTT5=
EXTT6=
EXTT7=
EXTT8=
EXTT9=
EXTT10=
EXTT11=
EXTT12=
EXTT13=
EXTT14=
EXTT15=
EXTT16=
EXTT17=
PLAYORDER=
